<svg width="20" height="20" viewBox="0 0 20 20" fill="none" xmlns="http://www.w3.org/2000/svg">
<g id="search_24px">
<path id="icon/action/search_24px" fill-rule="evenodd" clip-rule="evenodd" d="M12.4707 11.8792H13.1291L17.2874 16.0459L16.0457 17.2875L11.8791 13.1292V12.4709L11.6541 12.2375C10.7041 13.0542 9.47074 13.5459 8.12907 13.5459C5.1374 13.5459 2.7124 11.1209 2.7124 8.12919C2.7124 5.13752 5.1374 2.71252 8.12907 2.71252C11.1207 2.71252 13.5457 5.13752 13.5457 8.12919C13.5457 9.47086 13.0541 10.7042 12.2374 11.6542L12.4707 11.8792ZM4.37915 8.12927C4.37915 10.2043 6.05415 11.8793 8.12915 11.8793C10.2042 11.8793 11.8792 10.2043 11.8792 8.12927C11.8792 6.05427 10.2042 4.37927 8.12915 4.37927C6.05415 4.37927 4.37915 6.05427 4.37915 8.12927Z" fill="#8A8A8A"/>
</g>
</svg>
